<svg xmlns="http://www.w3.org/2000/svg" viewBox="0 0 1600 900">
  <defs>
    <linearGradient id="bg2" x1="0%" y1="0%" x2="100%" y2="100%">
      <stop offset="0%" stop-color="#281038"/>
      <stop offset="50%" stop-color="#7f2d63"/>
      <stop offset="100%" stop-color="#ff8d4d"/>
    </linearGradient>
  </defs>
  <rect width="1600" height="900" fill="url(#bg2)"/>
  <path d="M0 650c180-90 310-120 500-70s370 40 500-20 360-90 600 40v300H0z" fill="rgba(255,255,255,0.12)"/>
  <rect x="920" y="150" width="430" height="470" rx="40" fill="rgba(255,255,255,0.10)"/>
  <rect x="980" y="220" width="300" height="180" rx="28" fill="rgba(255,255,255,0.12)"/>
  <rect x="980" y="435" width="210" height="18" rx="9" fill="rgba(255,255,255,0.35)"/>
  <rect x="980" y="475" width="260" height="18" rx="9" fill="rgba(255,255,255,0.22)"/>
  <rect x="980" y="515" width="170" height="18" rx="9" fill="rgba(255,255,255,0.22)"/>
  <circle cx="320" cy="250" r="160" fill="rgba(255,255,255,0.08)"/>
  <circle cx="430" cy="290" r="70" fill="rgba(255,255,255,0.14)"/>
  <path d="M260 520h310" stroke="rgba(255,255,255,0.18)" stroke-width="20" stroke-linecap="round"/>
  <path d="M300 590h230" stroke="rgba(255,255,255,0.14)" stroke-width="20" stroke-linecap="round"/>
</svg>
